<svg width="128" height="128" viewBox="0 0 128 128" fill="none" xmlns="http://www.w3.org/2000/svg">
<path d="M41.48 93.8H40.23L39.63 108.08C39.6147 108.587 39.4138 109.071 39.0654 109.44C38.717 109.808 38.2454 110.036 37.74 110.08L25.09 111.2C24.7913 111.228 24.4901 111.191 24.2072 111.091C23.9243 110.992 23.6664 110.832 23.4514 110.622C23.2365 110.413 23.0696 110.16 22.9623 109.88C22.855 109.599 22.8098 109.299 22.83 109L23.6 94.2L6.21 94.6C5.90436 94.6074 5.60089 94.5469 5.32139 94.4231C5.04189 94.2992 4.79329 94.115 4.59346 93.8836C4.39364 93.6522 4.24755 93.3794 4.16568 93.0849C4.08382 92.7903 4.06821 92.4813 4.12 92.18L8.93 63.66C9.00922 63.1836 9.2525 62.7499 9.61774 62.434C9.98297 62.1181 10.4472 61.9398 10.93 61.93H20.78C21.0801 61.9353 21.3754 62.0058 21.6455 62.1366C21.9156 62.2674 22.1541 62.4553 22.3443 62.6874C22.5346 62.9195 22.6721 63.1902 22.7473 63.4808C22.8225 63.7713 22.8337 64.0747 22.78 64.37L19.21 84.74L24.13 84.59L25.45 58.31C25.4682 57.7732 25.6942 57.2645 26.0805 56.8913C26.4667 56.5181 26.9829 56.3097 27.52 56.31H39.52C39.7996 56.3097 40.0763 56.3661 40.3335 56.4757C40.5907 56.5853 40.823 56.7459 41.0165 56.9478C41.2099 57.1496 41.3605 57.3886 41.459 57.6502C41.5576 57.9118 41.6022 58.1907 41.59 58.47L40.59 84H41.32C41.5951 83.9852 41.8705 84.0255 42.1299 84.1185C42.3892 84.2115 42.6274 84.3554 42.8305 84.5417C43.0335 84.728 43.1973 84.9529 43.3123 85.2033C43.4273 85.4537 43.4911 85.7246 43.5 86V91.71C43.5054 92.2539 43.2965 92.7781 42.9185 93.1692C42.5405 93.5603 42.0238 93.7869 41.48 93.8Z" fill="#515570"/>
<path d="M121.48 50.8H120.23L119.63 65.08C119.615 65.587 119.414 66.0708 119.065 66.4395C118.717 66.8082 118.245 67.0361 117.74 67.08L105.09 68.2C104.791 68.2282 104.49 68.1912 104.207 68.0914C103.924 67.9917 103.666 67.8317 103.451 67.6224C103.236 67.4132 103.07 67.1597 102.962 66.8796C102.855 66.5994 102.81 66.2993 102.83 66L103.6 51.17L86.21 51.56C85.9044 51.5674 85.6009 51.5069 85.3214 51.3831C85.0419 51.2592 84.7933 51.075 84.5935 50.8436C84.3936 50.6122 84.2475 50.3394 84.1657 50.0449C84.0838 49.7503 84.0682 49.4413 84.12 49.14L88.93 20.63C89.0092 20.1536 89.2525 19.7199 89.6177 19.404C89.983 19.0881 90.4472 18.9098 90.93 18.9H100.78C101.08 18.9053 101.375 18.9758 101.646 19.1066C101.916 19.2374 102.154 19.4253 102.344 19.6574C102.535 19.8895 102.672 20.1602 102.747 20.4508C102.823 20.7413 102.834 21.0447 102.78 21.34L99.21 41.74L104.13 41.59L105.45 15.31C105.468 14.7732 105.694 14.2645 106.08 13.8913C106.467 13.5181 106.983 13.3097 107.52 13.31H119.52C119.8 13.3097 120.076 13.3661 120.334 13.4757C120.591 13.5853 120.823 13.7459 121.016 13.9478C121.21 14.1496 121.36 14.3886 121.459 14.6502C121.558 14.9118 121.602 15.1907 121.59 15.47L120.59 40.96H121.32C121.598 40.9452 121.877 40.9867 122.139 41.0822C122.401 41.1777 122.641 41.3251 122.845 41.5156C123.048 41.7061 123.211 41.9358 123.324 42.1909C123.436 42.446 123.496 42.7212 123.5 43V48.71C123.505 49.2539 123.297 49.7781 122.919 50.1692C122.541 50.5603 122.024 50.7869 121.48 50.8V50.8Z" fill="#515570"/>
<path d="M75.8301 54.64L76.5201 55.12C79.4013 57.2414 81.4191 60.3323 82.2019 63.8236C82.9847 67.315 82.4798 70.9715 80.7801 74.12C79.2921 76.8941 76.7631 78.9635 73.7495 79.873C70.7358 80.7825 67.4842 80.4577 64.7101 78.97C62.4905 77.7789 60.835 75.755 60.1074 73.3434C59.3798 70.9318 59.6397 68.33 60.8301 66.11C61.3014 65.23 61.9415 64.4516 62.7137 63.819C63.486 63.1864 64.3753 62.7122 65.3308 62.4234C66.2864 62.1346 67.2895 62.0369 68.2828 62.1358C69.2761 62.2348 70.2402 62.5284 71.1201 63C72.5399 63.7629 73.5987 65.0584 74.0637 66.6016C74.5288 68.1449 74.362 69.8097 73.6001 71.23C73.2996 71.7937 72.891 72.2926 72.3976 72.6982C71.9042 73.1038 71.3357 73.4082 70.7246 73.5939C70.1135 73.7797 69.4718 73.8432 68.8361 73.7807C68.2005 73.7183 67.5833 73.5311 67.0201 73.23C66.5694 72.9886 66.1707 72.6607 65.8469 72.2652C65.523 71.8696 65.2803 71.414 65.1327 70.9246C64.985 70.4352 64.9352 69.9214 64.9863 69.4127C65.0373 68.904 65.1881 68.4104 65.4301 67.96C65.82 67.2334 66.4826 66.6915 67.2721 66.4533C68.0616 66.2152 68.9133 66.3003 69.6401 66.69C70.2187 67.0051 70.6488 67.5368 70.8363 68.1684C71.0237 68.8001 70.9532 69.4803 70.6401 70.06C70.3881 70.5241 69.9628 70.8698 69.457 71.0215C68.9512 71.1733 68.4059 71.1188 67.9401 70.87C67.7551 70.7714 67.5914 70.6371 67.4585 70.475C67.3256 70.3128 67.2261 70.126 67.1657 69.9252C67.1053 69.7245 67.0852 69.5138 67.1065 69.3052C67.1279 69.0966 67.1902 68.8944 67.2901 68.71C67.3644 68.5599 67.4678 68.426 67.5942 68.316C67.7206 68.206 67.8675 68.122 68.0264 68.0691C68.1854 68.0161 68.3532 67.9951 68.5203 68.0072C68.6874 68.0194 68.8505 68.0645 69.0001 68.14C69.1202 68.201 69.2268 68.2856 69.3134 68.3888C69.4 68.492 69.4648 68.6116 69.5041 68.7405C69.5433 68.8694 69.5561 69.0049 69.5416 69.1388C69.5272 69.2728 69.4858 69.4024 69.4201 69.52" stroke="#BA4540" stroke-width="4" stroke-miterlimit="10" stroke-linecap="round"/>
<path d="M56 91C51.5988 87.6617 48.5339 82.8619 47.357 77.4648C46.18 72.0677 46.9683 66.4276 49.58 61.56C51.6003 57.7986 54.8563 54.8492 58.7986 53.2096C62.7409 51.57 67.1281 51.3406 71.22 52.56" stroke="#BA4540" stroke-width="3" stroke-miterlimit="10" stroke-linecap="round"/>
<path d="M78.88 95.74C74.5484 96.6769 70.0594 96.6051 65.76 95.53" stroke="#BA4540" stroke-width="3" stroke-miterlimit="10" stroke-linecap="round" stroke-dasharray="0.09 8.71"/>
<path d="M98.32 81.11C96.597 84.3296 94.2794 87.1934 91.49 89.55" stroke="#BA4540" stroke-width="3" stroke-miterlimit="10" stroke-linecap="round"/>
<path d="M62.52 85.08C59.0554 83.2191 56.4711 80.0591 55.3348 76.294C54.1986 72.529 54.6033 68.4668 56.46 65C57.948 62.2259 60.477 60.1565 63.4906 59.247C66.5043 58.3375 69.7558 58.6623 72.53 60.15C74.7469 61.3411 76.4006 63.3633 77.128 65.7724C77.8554 68.1816 77.5972 70.781 76.41 73C75.4564 74.7754 73.8367 76.0994 71.907 76.6808C69.9773 77.2621 67.8957 77.0532 66.12 76.1C64.7002 75.3371 63.6414 74.0416 63.1764 72.4984C62.7113 70.9551 62.8781 69.2903 63.64 67.87C63.9405 67.3063 64.3491 66.8074 64.8425 66.4018C65.3359 65.9962 65.9044 65.6918 66.5155 65.5061C67.1266 65.3203 67.7683 65.2568 68.404 65.3193C69.0396 65.3817 69.6568 65.5689 70.22 65.87C70.6707 66.1114 71.0694 66.4393 71.3932 66.8348C71.7171 67.2304 71.9598 67.686 72.1074 68.1754C72.2551 68.6649 72.3048 69.1786 72.2538 69.6873C72.2028 70.196 72.052 70.6896 71.81 71.14C71.4201 71.8666 70.7575 72.4085 69.968 72.6467C69.1785 72.8848 68.3268 72.7997 67.6 72.41C67.0214 72.0949 66.5912 71.5632 66.4038 70.9316C66.2164 70.2999 66.2869 69.6197 66.6 69.04C66.852 68.5759 67.2773 68.2302 67.7831 68.0785C68.2889 67.9267 68.8342 67.9812 69.3 68.23C69.485 68.3286 69.6487 68.4629 69.7816 68.6251C69.9145 68.7872 70.014 68.974 70.0744 69.1748C70.1348 69.3755 70.1549 69.5862 70.1336 69.7948C70.1122 70.0034 70.0499 70.2056 69.95 70.39C69.8713 70.5384 69.7639 70.6698 69.6341 70.7764C69.5042 70.883 69.3545 70.9629 69.1936 71.0112C69.0327 71.0596 68.8638 71.0756 68.6967 71.0582C68.5296 71.0408 68.3676 70.9904 68.22 70.91C68.0999 70.849 67.9933 70.7644 67.9067 70.6612C67.8201 70.558 67.7553 70.4384 67.716 70.3095C67.6768 70.1806 67.664 70.0451 67.6785 69.9112C67.6929 69.7772 67.7343 69.6476 67.8 69.53" stroke="#BA4540" stroke-width="4" stroke-miterlimit="10" stroke-linecap="round"/>
<path d="M61 42.87C66.9075 42.1576 72.8908 43.2893 78.13 46.11C80.8158 47.5463 83.1923 49.4978 85.1235 51.8531C87.0548 54.2083 88.5029 56.9211 89.3852 59.8362C90.2674 62.7514 90.5665 65.8119 90.2654 68.8428C89.9642 71.8736 89.0687 74.8154 87.63 77.5C85.812 80.8911 82.9845 83.6329 79.5391 85.3457C76.0937 87.0586 72.201 87.6576 68.4 87.06" stroke="#BA4540" stroke-width="3" stroke-miterlimit="10" stroke-linecap="round"/>
<path d="M48 47.81C49.2484 46.9484 50.5624 46.1861 51.93 45.53" stroke="#BA4540" stroke-width="4" stroke-miterlimit="10" stroke-linecap="round" stroke-dasharray="0.09 8.92"/>
<path d="M68.4201 76.93C72.6064 76.93 76.0001 73.6035 76.0001 69.5C76.0001 65.3965 72.6064 62.07 68.4201 62.07C64.2338 62.07 60.8401 65.3965 60.8401 69.5C60.8401 73.6035 64.2338 76.93 68.4201 76.93Z" fill="white" stroke="#393C54" stroke-width="6" stroke-linecap="round" stroke-linejoin="round"/>
<path d="M55.22 59.5C57.4291 59.5 59.22 57.7091 59.22 55.5C59.22 53.2909 57.4291 51.5 55.22 51.5C53.0108 51.5 51.22 53.2909 51.22 55.5C51.22 57.7091 53.0108 59.5 55.22 59.5Z" fill="#F8DC25"/>
<path d="M39.64 81.33L40.11 80.13C40.1384 80.0535 40.1896 79.9874 40.2566 79.9408C40.3237 79.8942 40.4034 79.8692 40.485 79.8692C40.5667 79.8692 40.6464 79.8942 40.7134 79.9408C40.7804 79.9874 40.8316 80.0535 40.86 80.13L41.33 81.33C41.5126 81.7803 41.7837 82.1893 42.1272 82.5328C42.4707 82.8764 42.8798 83.1474 43.33 83.33L44.53 83.8C44.6066 83.8284 44.6726 83.8796 44.7192 83.9466C44.7658 84.0137 44.7908 84.0934 44.7908 84.175C44.7908 84.2567 44.7658 84.3364 44.7192 84.4034C44.6726 84.4704 44.6066 84.5216 44.53 84.55L43.33 85.02C42.8798 85.2026 42.4707 85.4737 42.1272 85.8172C41.7837 86.1607 41.5126 86.5698 41.33 87.02L40.86 88.22C40.8316 88.2966 40.7804 88.3626 40.7134 88.4092C40.6464 88.4558 40.5667 88.4808 40.485 88.4808C40.4034 88.4808 40.3237 88.4558 40.2566 88.4092C40.1896 88.3626 40.1384 88.2966 40.11 88.22L39.64 87.02C39.4574 86.5698 39.1864 86.1607 38.8428 85.8172C38.4993 85.4737 38.0902 85.2026 37.64 85.02L36.44 84.55C36.3635 84.5216 36.2974 84.4704 36.2508 84.4034C36.2042 84.3364 36.1792 84.2567 36.1792 84.175C36.1792 84.0934 36.2042 84.0137 36.2508 83.9466C36.2974 83.8796 36.3635 83.8284 36.44 83.8L37.64 83.33C38.0902 83.1474 38.4993 82.8764 38.8428 82.5328C39.1864 82.1893 39.4574 81.7803 39.64 81.33V81.33Z" fill="#F8DC25"/>
<path d="M94.0001 48.27L94.4701 47.07C94.4985 46.9935 94.5497 46.9274 94.6167 46.8808C94.6838 46.8342 94.7635 46.8092 94.8451 46.8092C94.9268 46.8092 95.0065 46.8342 95.0735 46.8808C95.1405 46.9274 95.1917 46.9935 95.2201 47.07L95.6901 48.27C95.8727 48.7203 96.1438 49.1293 96.4873 49.4728C96.8309 49.8164 97.2399 50.0875 97.6901 50.27L98.8901 50.74C98.9667 50.7684 99.0327 50.8196 99.0793 50.8866C99.1259 50.9537 99.1509 51.0334 99.1509 51.115C99.1509 51.1967 99.1259 51.2764 99.0793 51.3434C99.0327 51.4104 98.9667 51.4616 98.8901 51.49L97.6901 51.96C97.2399 52.1426 96.8309 52.4137 96.4873 52.7572C96.1438 53.1008 95.8727 53.5098 95.6901 53.96L95.2201 55.16C95.1917 55.2366 95.1405 55.3026 95.0735 55.3492C95.0065 55.3958 94.9268 55.4208 94.8451 55.4208C94.7635 55.4208 94.6838 55.3958 94.6167 55.3492C94.5497 55.3026 94.4985 55.2366 94.4701 55.16L94.0001 54.07C93.8176 53.6198 93.5465 53.2107 93.2029 52.8672C92.8594 52.5237 92.4504 52.2526 92.0001 52.07L90.8001 51.6C90.7236 51.5716 90.6575 51.5204 90.6109 51.4534C90.5643 51.3864 90.5393 51.3067 90.5393 51.225C90.5393 51.1434 90.5643 51.0637 90.6109 50.9966C90.6575 50.9296 90.7236 50.8784 90.8001 50.85L92.0001 50.38C92.4609 50.1851 92.8764 49.8971 93.2206 49.534C93.5647 49.1709 93.8301 48.7406 94.0001 48.27V48.27Z" fill="#F8DC25"/>
<path d="M95.61 97.23C96.4937 97.23 97.21 96.5137 97.21 95.63C97.21 94.7464 96.4937 94.03 95.61 94.03C94.7264 94.03 94.01 94.7464 94.01 95.63C94.01 96.5137 94.7264 97.23 95.61 97.23Z" fill="#F8DC25"/>
<path d="M42.0199 65.24C42.9036 65.24 43.6199 64.5236 43.6199 63.64C43.6199 62.7563 42.9036 62.04 42.0199 62.04C41.1363 62.04 40.4199 62.7563 40.4199 63.64C40.4199 64.5236 41.1363 65.24 42.0199 65.24Z" fill="#F8DC25"/>
<path d="M85.4799 43.64C86.3635 43.64 87.0799 42.9237 87.0799 42.04C87.0799 41.1563 86.3635 40.44 85.4799 40.44C84.5962 40.44 83.8799 41.1563 83.8799 42.04C83.8799 42.9237 84.5962 43.64 85.4799 43.64Z" fill="#F8DC25"/>
</svg>
