<svg width="54" height="54" viewBox="0 0 54 54" fill="none" xmlns="http://www.w3.org/2000/svg">
<path d="M27 8C24.243 8 22 10.243 22 13C22 15.757 24.243 18 27 18C29.757 18 32 15.757 32 13C32 10.243 29.757 8 27 8ZM27 17C24.791 17 23 15.209 23 13C23 10.791 24.791 9 27 9C29.209 9 31 10.791 31 13C31 15.209 29.209 17 27 17Z" fill="#BA4540"/>
<path d="M40 18C40 10.819 34.181 5 27 5C19.819 5 14 10.819 14 18C14 23.015 16.842 27.358 21 29.526V49L26 54L33 45L30 42V36L33 33V29.526C37.158 27.358 40 23.015 40 18ZM25.906 52.492L25 51.585V30C25 29.449 25.449 29 26 29C26.551 29 27 29.449 27 30V51.085L25.906 52.492ZM32.538 28.64L32 28.92V29.526V32.586L29.293 35.293L29 35.586V36V42V42.414L29.293 42.707L31.668 45.083L28 49.8V30C28 28.897 27.103 28 26 28C24.897 28 24 28.897 24 30V50.586L22 48.586V29.526V28.92L21.462 28.64C17.476 26.561 15 22.484 15 18C15 11.383 20.383 6 27 6C33.617 6 39 11.383 39 18C39 22.484 36.524 26.561 32.538 28.64Z" fill="#BA4540"/>
<path d="M19 4.144L18.5 3.278C17.258 3.995 16.157 4.859 15.172 5.816L12.283 1H3V0H0V3H3V2H11.717L14.444 6.544C13.529 7.548 12.761 8.656 12.121 9.827L9.25 6H7V5H4V8H7V7H8.75L11.6 10.8L11.626 10.78C11.142 11.814 10.768 12.893 10.5 14H7.268L5.268 11H3V10H0V13H3V12H4.732L6.732 15H10.282C10.046 16.313 9.971 17.655 10.049 19H6.691L4.691 23H3V22H0V25H3V24H5.309L7.309 20H10.123C10.384 22.228 11.087 24.438 12.278 26.5L13.144 25.999C8.725 18.347 11.347 8.562 19 4.144ZM2 2H1V1H2V2ZM6 7H5V6H6V7ZM2 12H1V11H2V12ZM2 24H1V23H2V24Z" fill="#BA4540"/>
<path d="M54 14V11H51V12H48.691L46.691 16H43.877C43.616 13.772 42.913 11.562 41.722 9.49902L40.856 10C45.275 17.652 42.653 27.438 35 31.855L35.5 32.721C36.729 32.012 37.82 31.158 38.798 30.213L41.691 36H51V37H54V34H51V35H42.309L39.544 29.47C40.451 28.477 41.213 27.382 41.852 26.224L44.717 31H47V32H50V29H47V30H45.283L42.429 25.243L42.341 25.296C42.841 24.239 43.225 23.134 43.5 22.001H46.691L48.691 26.001H51V27.001H54V24.001H51V25.001H49.309L47.309 21.001H43.717C43.954 19.688 44.028 18.346 43.951 17.001H47.309L49.309 13.001H51V14.001H54V14ZM52 11.999H53V12.999H52V11.999ZM52 35L53 34.999V35.999H52V35ZM48 29.999H49V30.999H48V29.999ZM52 25L53 24.999V25.999H52V25Z" fill="#BA4540"/>
</svg>
