<svg width="48" height="40" viewBox="0 0 48 40" fill="none" xmlns="http://www.w3.org/2000/svg">
<path d="M47.9742 12.2888C48.0056 12.1487 48.0056 12.0033 47.9742 11.8632C47.9742 11.8632 47.9742 11.8632 47.9742 11.8632C47.9562 11.7039 47.9006 11.5511 47.8121 11.4174V11.4174L40.5573 0.798646C40.5677 0.71792 40.5677 0.636195 40.5573 0.555469C40.4627 0.368649 40.3125 0.215732 40.1274 0.117752C39.9424 0.0197713 39.7315 -0.018459 39.5238 0.00831949H8.70106C8.55879 0.0192589 8.42056 0.0607299 8.29576 0.129908V0.129908C8.23526 0.177071 8.18081 0.231522 8.13365 0.292026C8.07407 0.332585 8.01964 0.380217 7.97153 0.43388L0.210117 11.2958C0.104744 11.4451 0.0417242 11.6202 0.0277344 11.8024V11.8024C-0.00924481 11.9556 -0.00924481 12.1153 0.0277344 12.2685C0.0277344 12.2685 0.0277344 12.2685 0.0277344 12.2685C0.0239672 12.3157 0.0239672 12.3632 0.0277344 12.4104L24.1023 39.4841H24.3455H24.4468H24.5684H24.8318H25.1358H25.2574L47.5486 12.5522C47.5514 12.5117 47.5514 12.4711 47.5486 12.4306V12.4306C47.5486 12.4306 47.9742 12.309 47.9742 12.2888ZM24.0415 2.78459L29.7562 10.8905H18.266L21.7516 5.9459L24.0415 2.78459ZM30.5262 12.917L24.7508 35.2082L17.7594 12.917H30.5262ZM22.4203 34.6003L3.29036 12.8967H15.6316L22.4203 34.6003ZM32.5527 12.917H44.8332L26.9799 34.6408L32.5527 12.917ZM33.7281 10.8905L39.3819 2.78459L45.0358 10.8905H33.7281ZM37.4365 2.0348L31.7826 10.1407L26.1288 2.0348H37.4365ZM18.6105 6.9794L16.3814 10.1407L11.5584 3.29121L10.6667 2.0348H22.0961L18.6105 6.9794ZM8.70106 2.78459L13.5443 9.61382L14.436 10.8702H2.98639L8.70106 2.78459Z" fill="#BA4540"/>
</svg>
