<svg width="39" height="42" viewBox="0 0 39 42" fill="none" xmlns="http://www.w3.org/2000/svg">
<path d="M38.5 34.918C38.5 37.1055 37.8346 38.8327 36.5039 40.0996C35.1732 41.3665 33.4049 42 31.1992 42H7.30078C5.09505 42 3.32682 41.3665 1.99609 40.0996C0.665365 38.8327 0 37.1055 0 34.918C0 33.9518 0.031901 33.0085 0.0957031 32.0879C0.159505 31.1673 0.287109 30.1738 0.478516 29.1074C0.669922 28.041 0.911458 27.0521 1.20312 26.1406C1.49479 25.2292 1.88672 24.3405 2.37891 23.4746C2.87109 22.6087 3.4362 21.8704 4.07422 21.2598C4.71224 20.6491 5.49154 20.1615 6.41211 19.7969C7.33268 19.4323 8.34896 19.25 9.46094 19.25C9.625 19.25 10.0078 19.446 10.6094 19.8379C11.2109 20.2298 11.89 20.6673 12.6465 21.1504C13.403 21.6335 14.3874 22.071 15.5996 22.4629C16.8118 22.8548 18.0286 23.0508 19.25 23.0508C20.4714 23.0508 21.6882 22.8548 22.9004 22.4629C24.1126 22.071 25.097 21.6335 25.8535 21.1504C26.61 20.6673 27.2891 20.2298 27.8906 19.8379C28.4922 19.446 28.875 19.25 29.0391 19.25C30.151 19.25 31.1673 19.4323 32.0879 19.7969C33.0085 20.1615 33.7878 20.6491 34.4258 21.2598C35.0638 21.8704 35.6289 22.6087 36.1211 23.4746C36.6133 24.3405 37.0052 25.2292 37.2969 26.1406C37.5885 27.0521 37.8301 28.041 38.0215 29.1074C38.2129 30.1738 38.3405 31.1673 38.4043 32.0879C38.4681 33.0085 38.5 33.9518 38.5 34.918ZM29.75 10.5C29.75 13.3984 28.7246 15.873 26.6738 17.9238C24.623 19.9746 22.1484 21 19.25 21C16.3516 21 13.877 19.9746 11.8262 17.9238C9.77539 15.873 8.75 13.3984 8.75 10.5C8.75 7.60156 9.77539 5.12695 11.8262 3.07617C13.877 1.02539 16.3516 0 19.25 0C22.1484 0 24.623 1.02539 26.6738 3.07617C28.7246 5.12695 29.75 7.60156 29.75 10.5Z" fill="#BA4540"/>
</svg>
